<mxfile host="app.diagrams.net" modified="2021-08-15T11:32:26.542Z" agent="5.0 (Windows NT 10.0; Win64; x64) AppleWebKit/537.36 (KHTML, like Gecko) Chrome/92.0.4515.131 Safari/537.36" etag="Cti8PLDJ1fPQ1b5C_F3d" version="14.9.6" type="github">
  <diagram id="C5RBs43oDa-KdzZeNtuy" name="Page-1">
    <mxGraphModel dx="813" dy="435" grid="1" gridSize="10" guides="1" tooltips="1" connect="1" arrows="1" fold="1" page="1" pageScale="1" pageWidth="827" pageHeight="1169" math="0" shadow="0">
      <root>
        <mxCell id="WIyWlLk6GJQsqaUBKTNV-0" />
        <mxCell id="WIyWlLk6GJQsqaUBKTNV-1" parent="WIyWlLk6GJQsqaUBKTNV-0" />
        <mxCell id="Vs3HuoXiZajwMBFF6CWx-1" value="Obtem Ficheiro" style="rounded=1;whiteSpace=wrap;html=1;" vertex="1" parent="WIyWlLk6GJQsqaUBKTNV-1">
          <mxGeometry x="535" y="80" width="120" height="60" as="geometry" />
        </mxCell>
        <mxCell id="Vs3HuoXiZajwMBFF6CWx-2" value="É ficheiro SAFT ???" style="rhombus;whiteSpace=wrap;html=1;" vertex="1" parent="WIyWlLk6GJQsqaUBKTNV-1">
          <mxGeometry x="510" y="220" width="150" height="80" as="geometry" />
        </mxCell>
        <mxCell id="Vs3HuoXiZajwMBFF6CWx-6" value="" style="endArrow=classic;html=1;exitX=0.5;exitY=1;exitDx=0;exitDy=0;entryX=0.418;entryY=0.026;entryDx=0;entryDy=0;entryPerimeter=0;" edge="1" parent="WIyWlLk6GJQsqaUBKTNV-1" source="Vs3HuoXiZajwMBFF6CWx-1" target="Vs3HuoXiZajwMBFF6CWx-23">
          <mxGeometry width="50" height="50" relative="1" as="geometry">
            <mxPoint x="480" y="310" as="sourcePoint" />
            <mxPoint x="530" y="260" as="targetPoint" />
            <Array as="points">
              <mxPoint x="380" y="200" />
            </Array>
          </mxGeometry>
        </mxCell>
        <mxCell id="Vs3HuoXiZajwMBFF6CWx-14" value="" style="endArrow=classic;html=1;" edge="1" parent="WIyWlLk6GJQsqaUBKTNV-1">
          <mxGeometry relative="1" as="geometry">
            <mxPoint x="660" y="259.71" as="sourcePoint" />
            <mxPoint x="740" y="260" as="targetPoint" />
          </mxGeometry>
        </mxCell>
        <mxCell id="Vs3HuoXiZajwMBFF6CWx-15" value="Não" style="edgeLabel;resizable=0;html=1;align=center;verticalAlign=middle;" connectable="0" vertex="1" parent="Vs3HuoXiZajwMBFF6CWx-14">
          <mxGeometry relative="1" as="geometry">
            <mxPoint y="10" as="offset" />
          </mxGeometry>
        </mxCell>
        <mxCell id="Vs3HuoXiZajwMBFF6CWx-18" value="" style="endArrow=classic;html=1;exitX=0.5;exitY=1;exitDx=0;exitDy=0;entryX=0.389;entryY=-0.002;entryDx=0;entryDy=0;entryPerimeter=0;" edge="1" parent="WIyWlLk6GJQsqaUBKTNV-1" source="Vs3HuoXiZajwMBFF6CWx-2" target="Vs3HuoXiZajwMBFF6CWx-26">
          <mxGeometry relative="1" as="geometry">
            <mxPoint x="590" y="310" as="sourcePoint" />
            <mxPoint x="585" y="360" as="targetPoint" />
            <Array as="points" />
          </mxGeometry>
        </mxCell>
        <mxCell id="Vs3HuoXiZajwMBFF6CWx-19" value="Sim" style="edgeLabel;resizable=0;html=1;align=center;verticalAlign=middle;" connectable="0" vertex="1" parent="Vs3HuoXiZajwMBFF6CWx-18">
          <mxGeometry relative="1" as="geometry">
            <mxPoint x="229" y="50" as="offset" />
          </mxGeometry>
        </mxCell>
        <mxCell id="Vs3HuoXiZajwMBFF6CWx-20" value="Avisa que o tipo de ficheiro é inválido" style="shape=display;whiteSpace=wrap;html=1;" vertex="1" parent="WIyWlLk6GJQsqaUBKTNV-1">
          <mxGeometry x="740" y="235" width="136" height="50" as="geometry" />
        </mxCell>
        <mxCell id="Vs3HuoXiZajwMBFF6CWx-32" value="" style="edgeStyle=orthogonalEdgeStyle;rounded=0;orthogonalLoop=1;jettySize=auto;html=1;" edge="1" parent="WIyWlLk6GJQsqaUBKTNV-1" source="Vs3HuoXiZajwMBFF6CWx-23" target="Vs3HuoXiZajwMBFF6CWx-2">
          <mxGeometry relative="1" as="geometry" />
        </mxCell>
        <mxCell id="Vs3HuoXiZajwMBFF6CWx-23" value="Verifica SAFT" style="rounded=1;whiteSpace=wrap;html=1;" vertex="1" parent="WIyWlLk6GJQsqaUBKTNV-1">
          <mxGeometry x="330" y="230" width="120" height="60" as="geometry" />
        </mxCell>
        <mxCell id="Vs3HuoXiZajwMBFF6CWx-24" value="&lt;span&gt;Grava o Ficheiro na SandBox&lt;/span&gt;" style="rounded=1;whiteSpace=wrap;html=1;" vertex="1" parent="WIyWlLk6GJQsqaUBKTNV-1">
          <mxGeometry x="756" y="360" width="120" height="60" as="geometry" />
        </mxCell>
        <mxCell id="Vs3HuoXiZajwMBFF6CWx-36" value="" style="edgeStyle=orthogonalEdgeStyle;rounded=0;orthogonalLoop=1;jettySize=auto;html=1;" edge="1" parent="WIyWlLk6GJQsqaUBKTNV-1" source="Vs3HuoXiZajwMBFF6CWx-26" target="Vs3HuoXiZajwMBFF6CWx-33">
          <mxGeometry relative="1" as="geometry" />
        </mxCell>
        <mxCell id="Vs3HuoXiZajwMBFF6CWx-26" value="&lt;span&gt;Obtem Configuração&lt;/span&gt;" style="rounded=1;whiteSpace=wrap;html=1;" vertex="1" parent="WIyWlLk6GJQsqaUBKTNV-1">
          <mxGeometry x="330" y="360" width="120" height="60" as="geometry" />
        </mxCell>
        <mxCell id="Vs3HuoXiZajwMBFF6CWx-34" value="" style="edgeStyle=orthogonalEdgeStyle;rounded=0;orthogonalLoop=1;jettySize=auto;html=1;" edge="1" parent="WIyWlLk6GJQsqaUBKTNV-1" source="Vs3HuoXiZajwMBFF6CWx-33" target="Vs3HuoXiZajwMBFF6CWx-24">
          <mxGeometry relative="1" as="geometry" />
        </mxCell>
        <mxCell id="Vs3HuoXiZajwMBFF6CWx-39" value="" style="edgeStyle=orthogonalEdgeStyle;rounded=0;orthogonalLoop=1;jettySize=auto;html=1;" edge="1" parent="WIyWlLk6GJQsqaUBKTNV-1" source="Vs3HuoXiZajwMBFF6CWx-33" target="Vs3HuoXiZajwMBFF6CWx-38">
          <mxGeometry relative="1" as="geometry">
            <Array as="points">
              <mxPoint x="550" y="440" />
              <mxPoint x="390" y="440" />
            </Array>
          </mxGeometry>
        </mxCell>
        <mxCell id="Vs3HuoXiZajwMBFF6CWx-33" value="Tem Configuração" style="rhombus;whiteSpace=wrap;html=1;" vertex="1" parent="WIyWlLk6GJQsqaUBKTNV-1">
          <mxGeometry x="515" y="350" width="150" height="80" as="geometry" />
        </mxCell>
        <mxCell id="Vs3HuoXiZajwMBFF6CWx-35" value="Sim" style="edgeLabel;resizable=0;html=1;align=center;verticalAlign=middle;" connectable="0" vertex="1" parent="WIyWlLk6GJQsqaUBKTNV-1">
          <mxGeometry x="390.0037367111621" y="210.00353996608874" as="geometry">
            <mxPoint x="86" y="100" as="offset" />
          </mxGeometry>
        </mxCell>
        <mxCell id="Vs3HuoXiZajwMBFF6CWx-38" value="" style="rounded=1;whiteSpace=wrap;html=1;" vertex="1" parent="WIyWlLk6GJQsqaUBKTNV-1">
          <mxGeometry x="330" y="490" width="120" height="60" as="geometry" />
        </mxCell>
        <mxCell id="Vs3HuoXiZajwMBFF6CWx-40" value="Não" style="edgeLabel;resizable=0;html=1;align=center;verticalAlign=middle;" connectable="0" vertex="1" parent="WIyWlLk6GJQsqaUBKTNV-1">
          <mxGeometry x="709.9997371900902" y="250.0049990473141" as="geometry">
            <mxPoint x="-199" y="174" as="offset" />
          </mxGeometry>
        </mxCell>
      </root>
    </mxGraphModel>
  </diagram>
</mxfile>
